G75*
%MOIN*%
%OFA0B0*%
%FSLAX24Y24*%
%IPPOS*%
%LPD*%
%AMOC8*
5,1,8,0,0,1.08239X$1,22.5*
%
%ADD10C,0.0000*%
%ADD11R,0.2362X0.0591*%
%ADD12C,0.0600*%
%ADD13OC8,0.0520*%
%ADD14C,0.0160*%
%ADD15OC8,0.0356*%
D10*
X000100Y000133D02*
X000100Y011169D01*
X013088Y011169D01*
X013088Y000133D01*
X000100Y000133D01*
D11*
X005415Y009090D03*
X005415Y010862D03*
X007769Y010862D03*
X007769Y009090D03*
D12*
X011300Y005633D02*
X011900Y005633D01*
X011900Y004633D02*
X011300Y004633D01*
X011300Y003633D02*
X011900Y003633D01*
X001888Y004082D02*
X001288Y004082D01*
X001288Y003082D02*
X001888Y003082D01*
X001888Y002082D02*
X001288Y002082D01*
X001288Y001082D02*
X001888Y001082D01*
X001888Y005082D02*
X001288Y005082D01*
X001288Y006082D02*
X001888Y006082D01*
X001888Y007082D02*
X001288Y007082D01*
X001288Y008082D02*
X001888Y008082D01*
D13*
X003151Y008122D03*
X003151Y007122D03*
X003151Y006122D03*
X003151Y005122D03*
X003151Y004122D03*
X003151Y003122D03*
X003151Y002122D03*
X003151Y001122D03*
X006151Y001122D03*
X007151Y001122D03*
X007151Y002122D03*
X006151Y002122D03*
X006151Y003122D03*
X007151Y003122D03*
X007151Y004122D03*
X006151Y004122D03*
X006151Y005122D03*
X007151Y005122D03*
X007151Y006122D03*
X006151Y006122D03*
X006151Y007122D03*
X007151Y007122D03*
X007151Y008122D03*
X006151Y008122D03*
X010151Y008122D03*
X010151Y007122D03*
X010151Y006122D03*
X010151Y005122D03*
X010151Y004122D03*
X010151Y003122D03*
X010151Y002122D03*
X010151Y001122D03*
D14*
X007151Y004122D02*
X007663Y004633D01*
X011600Y004633D01*
X011600Y005633D02*
X009639Y005633D01*
X007151Y008122D01*
X007100Y008133D02*
X007100Y008708D01*
X007187Y008795D01*
X008958Y009188D02*
X009352Y009582D01*
X012108Y009582D01*
X012108Y010370D02*
X009352Y010370D01*
X008958Y010763D01*
X006100Y007133D02*
X005100Y008133D01*
X004100Y008133D01*
X003439Y008795D01*
X000494Y008795D01*
X000297Y008992D01*
X000297Y010173D01*
X000494Y010370D01*
X000887Y010370D01*
X001084Y010370D02*
X003840Y010370D01*
X004234Y010763D01*
X003840Y009582D02*
X001084Y009582D01*
X003840Y009582D02*
X004234Y009188D01*
D15*
X001084Y009582D03*
X000691Y009976D03*
X001084Y010370D03*
X000691Y010763D03*
X000691Y009188D03*
X012108Y009582D03*
X012502Y009976D03*
X012108Y010370D03*
X012502Y010763D03*
X012502Y009188D03*
M02*
