%
M48
M72
T01C0.0236
T02C0.0320
T03C0.0400
%
T01
X691Y9188
X1084Y9582
X691Y9976
X1084Y10370
X691Y10763
X12108Y10370
X12502Y10763
X12502Y9976
X12108Y9582
X12502Y9188
T02
X3151Y8122
X3151Y7122
X3151Y6122
X3151Y5122
X3151Y4122
X3151Y3122
X3151Y2122
X3151Y1122
X6151Y1122
X7151Y1122
X7151Y2122
X6151Y2122
X6151Y3122
X7151Y3122
X7151Y4122
X6151Y4122
X6151Y5122
X7151Y5122
X7151Y6122
X6151Y6122
X6151Y7122
X7151Y7122
X7151Y8122
X6151Y8122
X10151Y8122
X10151Y7122
X10151Y6122
X10151Y5122
X10151Y4122
X10151Y3122
X10151Y2122
X10151Y1122
T03
X1588Y1082
X1588Y2082
X1588Y3082
X1588Y4082
X1588Y5082
X1588Y6082
X1588Y7082
X1588Y8082
X11600Y5633
X11600Y4633
X11600Y3633
M30
